<?xml version="1.0" encoding="UTF-8"?>
<svg version="1.1" xmlns="http://www.w3.org/2000/svg" width="500" height="500">
<path d="M0 0 C1.31211708 -0.00639748 1.31211708 -0.00639748 2.65074158 -0.01292419 C4.10159401 -0.01224442 4.10159401 -0.01224442 5.58175659 -0.0115509 C6.59478348 -0.01490952 7.60781036 -0.01826813 8.65153503 -0.02172852 C12.02135424 -0.03127488 15.3911239 -0.03318381 18.76095581 -0.03425598 C21.09688335 -0.03746722 23.43281068 -0.04083119 25.76873779 -0.04434204 C30.67663031 -0.05034338 35.58450519 -0.05218103 40.49240112 -0.05158997 C46.77719282 -0.05148856 53.06187098 -0.06511359 59.34663582 -0.08236217 C64.17653928 -0.09349267 69.00641544 -0.09550881 73.83633041 -0.09498024 C76.152733 -0.09615982 78.4691363 -0.10058034 80.78552628 -0.10831261 C84.03148521 -0.11812861 87.27719983 -0.11522739 90.52316284 -0.10920715 C91.47825241 -0.11482666 92.43334198 -0.12044617 93.41737366 -0.12623596 C101.02391246 -0.09045393 107.30174513 1.15037386 113.94064331 5.13371277 C117.94064331 9.34423908 117.94064331 9.34423908 117.94064331 13.13371277 C118.93064331 13.62871277 118.93064331 13.62871277 119.94064331 14.13371277 C119.92001831 15.26808777 119.89939331 16.40246277 119.87814331 17.57121277 C119.52486854 20.94946951 119.52486854 20.94946951 120.94064331 22.13371277 C120.94064331 24.13371277 120.94064331 26.13371277 120.94064331 28.13371277 C121.12626831 28.87621277 121.31189331 29.61871277 121.50314331 30.38371277 C121.94064331 32.13371277 121.94064331 32.13371277 120.94064331 34.13371277 C121.25001831 35.18558777 121.55939331 36.23746277 121.87814331 37.32121277 C122.9390554 41.12801498 123.01909006 44.21137512 122.94064331 48.13371277 C123.27064331 48.46371277 123.60064331 48.79371277 123.94064331 49.13371277 C123.94064331 51.4670461 123.94064331 53.80037944 123.94064331 56.13371277 C124.10564331 56.91746277 124.27064331 57.70121277 124.44064331 58.50871277 C125.06581861 61.79088309 124.96639309 64.91165878 124.87814331 68.24308777 C124.72549686 70.14635234 124.72549686 70.14635234 125.94064331 71.13371277 C125.96134522 73.00871422 125.9316298 74.88436002 125.87814331 76.75871277 C125.82619741 81.63585558 126.47586538 85.46473312 127.94064331 90.13371277 C127.97827282 92.46674266 127.98730065 94.80084596 127.94064331 97.13371277 C128.27064331 97.46371277 128.60064331 97.79371277 128.94064331 98.13371277 C128.94064331 100.13243783 128.93799468 102.13128611 128.90939331 104.12980652 C128.94271991 106.26687444 129.31321387 108.09456709 129.94064331 110.13371277 C129.94064331 111.98799647 129.9106696 113.84221436 129.87814331 115.69621277 C129.53974788 118.96419586 129.53974788 118.96419586 130.94064331 120.13371277 C131.24788038 123.16540106 131.21915525 126.21338244 131.25314331 129.25871277 C131.28214722 130.10175964 131.31115112 130.94480652 131.34103394 131.81340027 C131.4111188 138.75719273 129.91037414 142.86440383 125.15939331 148.09465027 C124.59220581 148.56129089 124.02501831 149.02793152 123.44064331 149.50871277 C122.87345581 149.99082214 122.30626831 150.47293152 121.72189331 150.96965027 C119.79618852 152.22811524 118.17232275 152.65144306 115.94064331 153.13371277 C115.61064331 153.46371277 115.28064331 153.79371277 114.94064331 154.13371277 C113.37517283 154.22697993 111.80551559 154.25116859 110.23727417 154.24723816 C109.2363121 154.24716263 108.23535004 154.2470871 107.20405579 154.24700928 C106.11552811 154.24184799 105.02700043 154.23668671 103.90548706 154.23136902 C102.79709976 154.22995407 101.68871246 154.22853912 100.54673767 154.2270813 C96.99051262 154.2214631 93.43434948 154.20890752 89.87814331 154.19621277 C87.47384734 154.19120011 85.06955039 154.1866368 82.66525269 154.18254089 C76.75702827 154.17148776 70.84884021 154.15473193 64.94064331 154.13371277 C64.61064331 153.47371277 64.28064331 152.81371277 63.94064331 152.13371277 C62.8926355 152.03187683 61.84462769 151.93004089 60.76486206 151.82511902 C56.25387077 151.00954654 53.93141994 149.17070192 50.75314331 146.07121277 C49.97052124 145.32738342 49.97052124 145.32738342 49.17208862 144.56852722 C44.31404625 139.79597037 41.13426798 135.68349834 40.75314331 128.69621277 C40.84595581 127.42777527 40.84595581 127.42777527 40.94064331 126.13371277 C40.61064331 125.80371277 40.28064331 125.47371277 39.94064331 125.13371277 C39.84177978 123.51118785 39.81093164 121.88424004 39.81564331 120.25871277 C39.81306519 119.37441589 39.81048706 118.49011902 39.80783081 117.57902527 C40.00083117 114.02554798 40.96132648 112.10268802 42.94064331 109.13371277 C42.61064331 108.47371277 42.28064331 107.81371277 41.94064331 107.13371277 C42.49923706 105.18840027 42.49923706 105.18840027 43.37814331 103.00871277 C43.80933472 101.92203308 43.80933472 101.92203308 44.24923706 100.81340027 C44.47740112 100.25910339 44.70556519 99.70480652 44.94064331 99.13371277 C45.60064331 99.13371277 46.26064331 99.13371277 46.94064331 99.13371277 C46.61064331 98.47371277 46.28064331 97.81371277 45.94064331 97.13371277 C45.9100174 94.33800491 46.0077854 91.55676452 46.10079956 88.76261902 C45.89317914 85.35460582 44.38472009 83.69734868 42.31564331 81.07121277 C40.94064331 79.13371277 40.94064331 79.13371277 40.94064331 77.13371277 C38.20883835 76.0088519 35.51712515 75.00339949 32.69064331 74.13371277 C29.94064331 73.13371277 29.94064331 73.13371277 28.94064331 71.13371277 C26.02412157 70.96690168 26.02412157 70.96690168 22.94064331 71.13371277 C22.28064331 71.79371277 21.62064331 72.45371277 20.94064331 73.13371277 C18.96569289 73.36412365 16.99005566 73.59062448 15.01095581 73.78215027 C12.71049147 74.05788837 12.71049147 74.05788837 10.06564331 75.69621277 C4.81554005 78.11126027 -0.22464369 77.93599003 -5.75076294 76.37199402 C-10.40311462 74.61782863 -14.49626399 72.69680547 -18.05935669 69.13371277 C-18.05935669 68.47371277 -18.05935669 67.81371277 -18.05935669 67.13371277 C-18.71935669 67.13371277 -19.37935669 67.13371277 -20.05935669 67.13371277 C-22.83509391 64.12666411 -23.90345184 61.01425048 -25.05935669 57.13371277 C-25.55435669 55.64871277 -25.55435669 55.64871277 -26.05935669 54.13371277 C-26.45513829 47.92086213 -26.29447111 42.23636556 -24.50076294 36.27824402 C-23.71773246 32.47396317 -23.97285882 28.63609689 -24.08670044 24.77043152 C-24.05935669 22.13371277 -24.05935669 22.13371277 -23.05935669 19.13371277 C-23.12123169 17.95808777 -23.12123169 17.95808777 -23.18435669 16.75871277 C-22.91816584 11.16870484 -18.97320964 7.76118623 -15.05935669 4.13371277 C-14.41998169 3.53558777 -13.78060669 2.93746277 -13.12185669 2.32121277 C-10.36282143 0.73267732 -8.18967585 0.99458747 -5.05935669 1.13371277 C-3.52592359 -0.39972033 -2.13783424 0.00468757 0 0 Z " fill="#110D02" transform="translate(211.05935668945313,139.8662872314453)"/>
<path d="M0 0 C1.31211708 -0.00639748 1.31211708 -0.00639748 2.65074158 -0.01292419 C4.10159401 -0.01224442 4.10159401 -0.01224442 5.58175659 -0.0115509 C6.59478348 -0.01490952 7.60781036 -0.01826813 8.65153503 -0.02172852 C12.02135424 -0.03127488 15.3911239 -0.03318381 18.76095581 -0.03425598 C21.09688335 -0.03746722 23.43281068 -0.04083119 25.76873779 -0.04434204 C30.67663031 -0.05034338 35.58450519 -0.05218103 40.49240112 -0.05158997 C46.77719282 -0.05148856 53.06187098 -0.06511359 59.34663582 -0.08236217 C64.17653928 -0.09349267 69.00641544 -0.09550881 73.83633041 -0.09498024 C76.152733 -0.09615982 78.4691363 -0.10058034 80.78552628 -0.10831261 C84.03148521 -0.11812861 87.27719983 -0.11522739 90.52316284 -0.10920715 C91.47825241 -0.11482666 92.43334198 -0.12044617 93.41737366 -0.12623596 C101.02391246 -0.09045393 107.30174513 1.15037386 113.94064331 5.13371277 C117.94064331 9.34423908 117.94064331 9.34423908 117.94064331 13.13371277 C118.93064331 13.62871277 118.93064331 13.62871277 119.94064331 14.13371277 C119.92001831 15.26808777 119.89939331 16.40246277 119.87814331 17.57121277 C119.52486854 20.94946951 119.52486854 20.94946951 120.94064331 22.13371277 C120.94064331 24.13371277 120.94064331 26.13371277 120.94064331 28.13371277 C121.12626831 28.87621277 121.31189331 29.61871277 121.50314331 30.38371277 C121.94064331 32.13371277 121.94064331 32.13371277 120.94064331 34.13371277 C121.25001831 35.18558777 121.55939331 36.23746277 121.87814331 37.32121277 C122.9390554 41.12801498 123.01909006 44.21137512 122.94064331 48.13371277 C123.27064331 48.46371277 123.60064331 48.79371277 123.94064331 49.13371277 C123.94064331 51.4670461 123.94064331 53.80037944 123.94064331 56.13371277 C124.10564331 56.91746277 124.27064331 57.70121277 124.44064331 58.50871277 C125.06581861 61.79088309 124.96639309 64.91165878 124.87814331 68.24308777 C124.72549686 70.14635234 124.72549686 70.14635234 125.94064331 71.13371277 C125.96134522 73.00871422 125.9316298 74.88436002 125.87814331 76.75871277 C125.82619741 81.63585558 126.47586538 85.46473312 127.94064331 90.13371277 C127.97827282 92.46674266 127.98730065 94.80084596 127.94064331 97.13371277 C128.27064331 97.46371277 128.60064331 97.79371277 128.94064331 98.13371277 C128.94064331 100.13243783 128.93799468 102.13128611 128.90939331 104.12980652 C128.94271991 106.26687444 129.31321387 108.09456709 129.94064331 110.13371277 C129.94064331 111.98799647 129.9106696 113.84221436 129.87814331 115.69621277 C129.53974788 118.96419586 129.53974788 118.96419586 130.94064331 120.13371277 C131.24788038 123.16540106 131.21915525 126.21338244 131.25314331 129.25871277 C131.28214722 130.10175964 131.31115112 130.94480652 131.34103394 131.81340027 C131.4111188 138.75719273 129.91037414 142.86440383 125.15939331 148.09465027 C124.59220581 148.56129089 124.02501831 149.02793152 123.44064331 149.50871277 C122.87345581 149.99082214 122.30626831 150.47293152 121.72189331 150.96965027 C119.79618852 152.22811524 118.17232275 152.65144306 115.94064331 153.13371277 C115.61064331 153.46371277 115.28064331 153.79371277 114.94064331 154.13371277 C113.37517283 154.22697993 111.80551559 154.25116859 110.23727417 154.24723816 C109.2363121 154.24716263 108.23535004 154.2470871 107.20405579 154.24700928 C106.11552811 154.24184799 105.02700043 154.23668671 103.90548706 154.23136902 C102.79709976 154.22995407 101.68871246 154.22853912 100.54673767 154.2270813 C96.99051262 154.2214631 93.43434948 154.20890752 89.87814331 154.19621277 C87.47384734 154.19120011 85.06955039 154.1866368 82.66525269 154.18254089 C76.75702827 154.17148776 70.84884021 154.15473193 64.94064331 154.13371277 C64.61064331 153.47371277 64.28064331 152.81371277 63.94064331 152.13371277 C62.89392456 152.03187683 61.84720581 151.93004089 60.76876831 151.82511902 C56.24955888 151.00889446 53.89020934 149.16429807 50.69064331 146.07121277 C50.16631714 145.57967712 49.64199097 145.08814148 49.10177612 144.58171082 C45.12785154 140.6943132 43.15682298 137.50517299 41.94064331 132.13371277 C43.17427612 132.32900574 43.17427612 132.32900574 44.43283081 132.52824402 C51.91221591 133.45237128 56.43620741 133.21163489 62.81954956 129.06730652 C63.5195105 128.75922058 64.21947144 128.45113464 64.94064331 128.13371277 C66.92064331 129.12371277 66.92064331 129.12371277 68.94064331 130.13371277 C69.93064331 127.16371277 70.92064331 124.19371277 71.94064331 121.13371277 C78.30799025 121.50105971 78.30799025 121.50105971 81.37814331 124.57121277 C82.94064331 127.13371277 82.94064331 127.13371277 82.94064331 129.13371277 C83.60064331 129.13371277 84.26064331 129.13371277 84.94064331 129.13371277 C85.02314331 128.34996277 85.10564331 127.56621277 85.19064331 126.75871277 C85.94064331 124.13371277 85.94064331 124.13371277 88.00314331 122.82121277 C88.64251831 122.59433777 89.28189331 122.36746277 89.94064331 122.13371277 C91.42564331 124.11371277 91.42564331 124.11371277 92.94064331 126.13371277 C94.09480838 124.07550196 95.23900178 122.01271805 96.37814331 119.94621277 C97.01622925 118.79765808 97.65431519 117.64910339 98.31173706 116.46574402 C99.72823366 113.5682102 100.51704224 111.30177149 100.94064331 108.13371277 C103.94064331 109.13371277 103.94064331 109.13371277 105.10861206 110.87590027 C105.44505737 111.57972839 105.78150269 112.28355652 106.12814331 113.00871277 C106.472323 113.70738464 106.81650269 114.40605652 107.17111206 115.12590027 C107.94064331 117.13371277 107.94064331 117.13371277 107.94064331 120.13371277 C108.60064331 120.13371277 109.26064331 120.13371277 109.94064331 120.13371277 C112.34720542 112.88193895 113.83709242 105.68979063 114.94064331 98.13371277 C115.93064331 98.13371277 116.92064331 98.13371277 117.94064331 98.13371277 C117.96774454 95.57114097 117.98753102 93.00885912 118.00314331 90.44621277 C118.01152222 89.7249823 118.01990112 89.00375183 118.02853394 88.26066589 C118.04614769 84.40325339 117.80311599 80.88878613 116.94064331 77.13371277 C116.87876831 75.91683777 116.81689331 74.69996277 116.75314331 73.44621277 C115.6143865 64.28439657 108.6650331 56.93425621 101.94064331 51.13371277 C101.28064331 50.80371277 100.62064331 50.47371277 99.94064331 50.13371277 C100.22681519 49.42859558 100.51298706 48.72347839 100.80783081 47.99699402 C101.94541162 45.12166045 103.01456688 42.22919091 104.06564331 39.32121277 C104.595448 37.8574823 104.595448 37.8574823 105.13595581 36.36418152 C105.40150269 35.62812683 105.66704956 34.89207214 105.94064331 34.13371277 C105.61064331 33.80371277 105.28064331 33.47371277 104.94064331 33.13371277 C104.39248442 25.8600659 104.29120931 19.55671662 107.94064331 13.13371277 C108.27064331 12.80371277 108.60064331 12.47371277 108.94064331 12.13371277 C103.95254419 12.65448287 100.12079429 13.73625369 95.62814331 15.94621277 C90.77178063 18.28466916 85.91525711 20.3903217 80.86642456 22.27433777 C78.75868482 23.07728835 78.75868482 23.07728835 76.94064331 25.13371277 C74.94113159 25.42082214 74.94113159 25.42082214 72.51095581 25.47746277 C71.63310425 25.50711121 70.75525269 25.53675964 69.85079956 25.56730652 C68.931698 25.58922058 68.01259644 25.61113464 67.06564331 25.63371277 C65.25552144 25.67723762 63.44557512 25.7290239 61.63595581 25.78996277 C60.83174194 25.80865417 60.02752808 25.82734558 59.19894409 25.84660339 C56.72744438 26.16081784 55.12915638 26.98263744 52.94064331 28.13371277 C49.79899108 28.40108743 47.64800938 28.46824329 44.77658081 27.11027527 C40.35272032 25.58690733 35.87580566 26.12194795 31.26681519 26.38761902 C25.85886466 26.5510593 23.38699101 25.42797037 18.94064331 22.13371277 C16.67433412 21.25295456 14.38017373 20.44108948 12.06564331 19.69621277 C7.06644967 17.99648693 2.9601873 16.11589926 -1.37185669 13.13761902 C-3.8277007 11.67661922 -6.24324824 11.3449209 -9.05935669 11.13371277 C-8.41482544 11.95097839 -7.77029419 12.76824402 -7.10623169 13.61027527 C-4.54034134 17.45911079 -4.39940575 20.98170066 -4.30935669 25.50871277 C-4.27970825 26.24476746 -4.25005981 26.98082214 -4.21951294 27.73918152 C-4.14947636 29.53678707 -4.1020755 31.33525067 -4.05935669 33.13371277 C-5.04935669 33.62871277 -5.04935669 33.62871277 -6.05935669 34.13371277 C-5.51795044 35.36347839 -5.51795044 35.36347839 -4.96560669 36.61808777 C-4.50154419 37.69574402 -4.03748169 38.77340027 -3.55935669 39.88371277 C-3.09529419 40.95105652 -2.63123169 42.01840027 -2.15310669 43.11808777 C-1.05935669 46.13371277 -1.05935669 46.13371277 -1.05935669 50.13371277 C-2.37966919 51.52043152 -2.37966919 51.52043152 -4.18435669 52.82121277 C-9.21260978 56.8274632 -13.02012788 62.01602635 -15.05935669 68.13371277 C-18.00537274 67.81522455 -19.61794423 67.57512523 -21.74685669 65.44621277 C-23.27659642 62.75095706 -24.17578263 60.09999711 -25.05935669 57.13371277 C-25.55435669 55.64871277 -25.55435669 55.64871277 -26.05935669 54.13371277 C-26.45513829 47.92086213 -26.29447111 42.23636556 -24.50076294 36.27824402 C-23.71773246 32.47396317 -23.97285882 28.63609689 -24.08670044 24.77043152 C-24.05935669 22.13371277 -24.05935669 22.13371277 -23.05935669 19.13371277 C-23.12123169 17.95808777 -23.12123169 17.95808777 -23.18435669 16.75871277 C-22.91816584 11.16870484 -18.97320964 7.76118623 -15.05935669 4.13371277 C-14.41998169 3.53558777 -13.78060669 2.93746277 -13.12185669 2.32121277 C-10.36282143 0.73267732 -8.18967585 0.99458747 -5.05935669 1.13371277 C-3.52592359 -0.39972033 -2.13783424 0.00468757 0 0 Z " fill="#ECB829" transform="translate(211.05935668945313,139.8662872314453)"/>
<path d="M0 0 C4.23164299 1.2342292 6.94542093 2.67981038 9.875 6 C11.4586193 10.0470271 11.09199473 13.69586229 10 17.875 C9.34 18.535 8.68 19.195 8 19.875 C8.495 20.865 8.495 20.865 9 21.875 C8.4765625 23.93359375 8.4765625 23.93359375 7.625 26.3125 C7.34914063 27.09496094 7.07328125 27.87742188 6.7890625 28.68359375 C6.52867187 29.40675781 6.26828125 30.12992188 6 30.875 C4.50028082 35.37415754 3.29908825 39.95700409 2.03515625 44.52734375 C1.20795298 47.20248792 0.29994323 49.42142749 -1 51.875 C-1.35919668 53.53628463 -1.68911632 55.20400023 -2 56.875 C-2.92798821 60.23895725 -3.89651166 63.56453499 -5 66.875 C-5.268125 67.82375 -5.53625 68.7725 -5.8125 69.75 C-7.35153912 73.80010295 -9.33959154 76.57039335 -12.75 79.25 C-16.36487527 80.25413202 -19.50623832 80.1092826 -23 78.875 C-28.25094601 75.05068087 -29.97006298 69.59832294 -31.9453125 63.65625 C-35.3311873 54.72757276 -41.53830116 48.20904087 -50 43.875 C-51.093125 43.58625 -52.18625 43.2975 -53.3125 43 C-57.67109601 41.67025884 -61.44702682 39.75429255 -65 36.875 C-65 36.215 -65 35.555 -65 34.875 C-65.99 34.545 -66.98 34.215 -68 33.875 C-68.99745061 29.80207669 -69.39194971 26.88484921 -67.5 23.125 C-65.04278146 19.37185113 -62.30037442 18.16511233 -58 16.875 C-56.54543993 16.66018063 -55.08662973 16.4722839 -53.625 16.3125 C-52.42875 16.168125 -51.2325 16.02375 -50 15.875 C-49.67 15.215 -49.34 14.555 -49 13.875 C-47.01448269 13.64335631 -45.0283338 13.41556836 -43.0390625 13.21875 C-40.8385844 12.9765386 -40.8385844 12.9765386 -38.625 11.4375 C-34.73665416 9.12300843 -30.48154752 8.35091655 -26 7.875 C-25.34 8.205 -24.68 8.535 -24 8.875 C-24 8.215 -24 7.555 -24 6.875 C-19.92989429 4.69458623 -16.68097208 3.93985448 -12.0625 3.5 C-9.14075651 3.1759619 -7.95866035 2.84940879 -5.375 1.25 C-3 -0.125 -3 -0.125 0 0 Z " fill="#800000" transform="translate(238,220.125)"/>
<path d="M0 0 C4.45636293 -0.70363625 6.85178177 0.33361662 10.5 2.6875 C15.6992552 6.03777995 21.0315923 7.93147823 26.8984375 9.82421875 C30 11 30 11 31.88671875 12.640625 C35.19095085 14.76608299 38.65143342 14.23385912 42.4375 14.0625 C47.52237815 13.85735899 51.29699401 13.77629608 56 16 C60.10667937 16.34482389 60.10667937 16.34482389 63.89892578 15.00146484 C66.29444932 13.85965244 67.9140336 13.74677856 70.5546875 13.7265625 C71.41707031 13.7059375 72.27945313 13.6853125 73.16796875 13.6640625 C74.96474916 13.63813493 76.76165674 13.61983752 78.55859375 13.609375 C84.31343798 13.45499766 87.31386192 12.59248492 92 9 C94.07788684 8.10314545 96.18406941 7.26924964 98.3125 6.5 C102.29442669 5.03345232 106.16594467 3.50498352 110 1.6875 C113.12801643 0.25310573 115.49954186 -0.45167202 119 0 C118.525625 0.7425 118.05125 1.485 117.5625 2.25 C115.04522475 6.68040445 114.79167176 10.6904034 114.4375 15.75 C114.31181641 17.50570312 114.31181641 17.50570312 114.18359375 19.296875 C114.12300781 20.18890625 114.06242187 21.0809375 114 22 C114.66 22.33 115.32 22.66 116 23 C115.21012527 24.91740583 114.41802852 26.83389641 113.625 28.75 C112.96371094 30.35101563 112.96371094 30.35101563 112.2890625 31.984375 C111.26692415 34.37555926 110.19786405 36.69383183 109 39 C109.58007812 39.26039063 110.16015625 39.52078125 110.7578125 39.7890625 C118.97548306 44.22717726 123.84964892 52.47414279 127 61 C127.37942738 63.53546767 127.2738006 65.42627432 127 68 C127.33 68.99 127.66 69.98 128 71 C128.12182523 73.69998707 128.18511299 76.36278771 128.1875 79.0625 C128.19974609 79.79533203 128.21199219 80.52816406 128.22460938 81.28320312 C128.22986299 83.19026507 128.12218272 85.09684886 128 87 C127.34 87.66 126.68 88.32 126 89 C125.67 88.67 125.34 88.34 125 88 C124.81824219 88.92941406 124.63648438 89.85882813 124.44921875 90.81640625 C123.15074406 97.20223816 121.92195712 103.15608576 119 109 C118.34 109 117.68 109 117 109 C116.74605469 108.38511719 116.49210937 107.77023437 116.23046875 107.13671875 C115.88628906 106.32847656 115.54210937 105.52023437 115.1875 104.6875 C114.85105469 103.88699219 114.51460938 103.08648437 114.16796875 102.26171875 C113.01799296 100.03484255 111.86373039 98.65012233 110 97 C110.10828125 98.02673828 110.10828125 98.02673828 110.21875 99.07421875 C109.92765718 102.96758527 108.41435106 105.42820081 106.5 108.8125 C106.16613281 109.40998047 105.83226562 110.00746094 105.48828125 110.62304688 C104.66827367 112.08734612 103.83540688 113.54443137 103 115 C102.01 115 101.02 115 100 115 C99.67 113.68 99.34 112.36 99 111 C96.47411298 113.36292656 95.11179163 114.66462511 94 118 C93.34 118 92.68 118 92 118 C91.443125 117.05125 90.88625 116.1025 90.3125 115.125 C87.49793691 111.32153636 85.55060925 110.87511716 81 110 C80.814375 111.6396875 80.814375 111.6396875 80.625 113.3125 C80 117 80 117 78 120 C77.360625 119.566875 76.72125 119.13375 76.0625 118.6875 C72.33900381 117.8516131 71.77926442 118.45008992 68.625 120.375 C63.88238705 123.25668701 60.50808734 123.82016187 55.01171875 122.53515625 C53.32687546 122.07258404 51.66088755 121.54233063 50 121 C50.495 119.02 50.495 119.02 51 117 C52.15757812 116.98582031 53.31515625 116.97164063 54.5078125 116.95703125 C56.04691372 116.91010743 57.58597499 116.86186018 59.125 116.8125 C59.88554687 116.80669922 60.64609375 116.80089844 61.4296875 116.79492188 C67.27151482 116.56829926 69.91220632 115.19603744 74 111 C76.77704015 105.44591971 73.58235882 96.69649174 72 91 C72.99 91 73.98 91 75 91 C75.33 90.34 75.66 89.68 76 89 C76.28875 90.216875 76.5775 91.43375 76.875 92.6875 C77.24668274 94.12586129 77.62152914 95.56340992 78 97 C78.37125 98.423125 78.37125 98.423125 78.75 99.875 C80.55476095 102.94309361 82.64033115 102.98576035 86 104 C88.4499046 105.54162333 90.6915377 107.24556865 93 109 C94.14814997 106.70370006 94.30769809 104.92301914 94.5625 102.375 C94.68818359 101.14910156 94.68818359 101.14910156 94.81640625 99.8984375 C94.87699219 99.27195312 94.93757813 98.64546875 95 98 C98.36748512 99.51947499 99.60840337 100.52100842 101 104 C101.66 104 102.32 104 103 104 C105.10396411 98.06682122 106.75971762 92.17222879 108 86 C111.61938095 88.64116988 113.98706523 90.97413046 116 95 C116 95.66 116 96.32 116 97 C116.66 97 117.32 97 118 97 C118.02716824 94.45826023 118.04691969 91.91681585 118.0625 89.375 C118.07506836 88.30572266 118.07506836 88.30572266 118.08789062 87.21484375 C118.10710296 83.02655562 117.8267327 79.1271538 117 75 C118.32 75.66 119.64 76.32 121 77 C121.70859201 68.85119188 118.48317961 61.72476941 114 55 C115.98 55.495 115.98 55.495 118 56 C113.12557734 47.69132502 107.58824357 41.73032633 98.296875 38.58984375 C93.59512946 37.3824227 88.80201189 36.68028502 84 36 C84 35.34 84 34.68 84 34 C83.34 33.67 82.68 33.34 82 33 C83.65 33 85.3 33 87 33 C85.4243707 27.53163949 84.01492626 23.92991138 79.09375 20.84375 C75.1050481 19.23636267 71.20077525 19.3231309 67 20 C64.99218823 20.98422146 62.99107248 21.98234073 61 23 C56.74341661 22.78356356 54.55991776 22.37327851 51 20 C46.19097087 19.28816436 42.10278023 19.53029731 37.625 21.4375 C34.14430671 24.83531964 32.64288168 28.47724339 31 33 C32.98 33 34.96 33 37 33 C36.01 33.33 35.02 33.66 34 34 C34 34.66 34 35.32 34 36 C33.20078125 36.07476562 32.4015625 36.14953125 31.578125 36.2265625 C21.71196157 37.40772291 12.19977129 39.94093547 5.375 47.625 C3.57619107 49.9470988 2.26132522 52.35005987 1 55 C1.99 55.33 2.98 55.66 4 56 C2.68 58.31 1.36 60.62 0 63 C-3.93673644 61.68775452 -6.22719294 60.08089673 -9 57 C-8.01 57 -7.02 57 -6 57 C-5.91234375 56.27941406 -5.8246875 55.55882812 -5.734375 54.81640625 C-4.85481884 51.44321481 -3.45718264 49.62179919 -1.25 46.9375 C-0.57453125 46.10089844 0.1009375 45.26429688 0.796875 44.40234375 C3.02829134 41.96915041 5.37127485 39.98992655 8 38 C7.71382812 37.46890625 7.42765625 36.9378125 7.1328125 36.390625 C5.79673712 33.57104523 4.84213837 30.71589101 3.875 27.75 C3.52179688 26.67234375 3.16859375 25.5946875 2.8046875 24.484375 C2.53914062 23.66453125 2.27359375 22.8446875 2 22 C2.99 22 3.98 22 5 22 C4.74443878 19.41432182 4.47122959 16.83260952 4.1875 14.25 C4.11724609 13.52039063 4.04699219 12.79078125 3.97460938 12.0390625 C3.49424239 7.81183304 2.82718885 5.19123783 0 2 C0 1.34 0 0.68 0 0 Z " fill="#0F0C02" transform="translate(202,151)"/>
<path d="M0 0 C6.93 0 13.86 0 21 0 C22.32 9.24 23.64 18.48 25 28 C25.33 28 25.66 28 26 28 C27.32 18.76 28.64 9.52 30 0 C36.93 0 43.86 0 51 0 C51 21.12 51 42.24 51 64 C46.71 64 42.42 64 38 64 C37.67 54.76 37.34 45.52 37 36 C35.72583349 44.09196745 35.72583349 44.09196745 34.45727539 52.18481445 C34.29735107 53.1924585 34.13742676 54.20010254 33.97265625 55.23828125 C33.81031494 56.26993408 33.64797363 57.30158691 33.48071289 58.36450195 C33 61 33 61 32 64 C27.71 64 23.42 64 19 64 C17.35 54.1 15.7 44.2 14 34 C13.67 43.9 13.34 53.8 13 64 C8.71 64 4.42 64 0 64 C0 42.88 0 21.76 0 0 Z " fill="#800000" transform="translate(294,303)"/>
<path d="M0 0 C0 0.66 0 1.32 0 2 C0.82242187 1.95359375 1.64484375 1.9071875 2.4921875 1.859375 C14.27171153 1.47851279 21.39222984 3.96241672 30.08984375 11.90234375 C35 17.29447853 35 17.29447853 35 21 C34.01 21 33.02 21 32 21 C32.33773437 21.50789063 32.67546875 22.01578125 33.0234375 22.5390625 C37.52512184 29.48674874 39.28548013 34.72107616 39 43 C37.35 42.01 35.7 41.02 34 40 C34.495 41.11375 34.495 41.11375 35 42.25 C36.68495213 48.5685705 36.88983739 55.68038376 35 62 C34.34 62 33.68 62 33 62 C31.52734375 60.06640625 31.52734375 60.06640625 29.9375 57.5625 C28.16321108 54.6281857 28.16321108 54.6281857 26 52 C25.81824219 52.64066406 25.63648438 53.28132813 25.44921875 53.94140625 C23.93729955 59.14395897 22.24999329 64.07144327 20 69 C19.34 69 18.68 69 18 69 C16.64613064 67.34997172 15.31321858 65.6825613 14 64 C13.34 63.67 12.68 63.34 12 63 C12.05220703 63.92232422 12.05220703 63.92232422 12.10546875 64.86328125 C12.13253906 65.67152344 12.15960938 66.47976562 12.1875 67.3125 C12.23970703 68.51326172 12.23970703 68.51326172 12.29296875 69.73828125 C11.93801608 72.47851584 11.10633718 73.29171079 9 75 C7.700625 73.8553125 7.700625 73.8553125 6.375 72.6875 C4.17292989 70.8230114 2.57677519 69.81378108 -0.125 68.625 C-4.66149544 66.06089388 -6.33386597 62.38067217 -7.6875 57.54296875 C-8.18075161 55.36786615 -8.62126647 53.19765115 -9 51 C-2.375 51.75 -2.375 51.75 1 54 C0.01 51.03 -0.98 48.06 -2 45 C0.91517292 46.07401108 2.77810176 46.77810176 5 49 C4.45660208 44.43545749 3.20536179 41.0271824 1 37 C1.99 37 2.98 37 4 37 C1.97366931 32.67628107 1.97366931 32.67628107 -1 29 C-1 28.01 -1 27.02 -1 26 C-1.804375 25.87625 -2.60875 25.7525 -3.4375 25.625 C-4.7059375 25.315625 -4.7059375 25.315625 -6 25 C-6.33 24.34 -6.66 23.68 -7 23 C-5.88625 22.731875 -4.7725 22.46375 -3.625 22.1875 C0.21840951 21.34190981 0.21840951 21.34190981 2 18 C2.24150773 15.48415109 2.24150773 15.48415109 2.125 12.8125 C2.10695313 11.91144531 2.08890625 11.01039063 2.0703125 10.08203125 C2.04710937 9.39496094 2.02390625 8.70789063 2 8 C4.46800047 9.15173355 6.04783565 10.04783565 8 12 C8.31404687 16.23963281 8.32617985 19.36534398 6 23 C6.86625 23.103125 7.7325 23.20625 8.625 23.3125 C14.82963006 24.57640612 18.35937465 26.81911008 22 32 C19.10765685 32.82638376 17.11257569 33 14 33 C15.98 35.97 17.96 38.94 20 42 C20.33 40.35 20.66 38.7 21 37 C25.75 37.875 25.75 37.875 28 39 C25.75347149 33.62267113 23.40298503 28.739872 20 24 C20.99 23.67 21.98 23.34 23 23 C19.0949151 19.44992282 16.02265357 18.18180084 11 17 C14.75 13.125 14.75 13.125 17 12 C9.81074716 8.54125293 3.09790868 5.39487882 -5 7 C-8.3669115 8.74348693 -8.3669115 8.74348693 -11 11 C-12.3191582 11.69429379 -13.64649406 12.37530495 -15 13 C-15 11.02 -15 9.04 -15 7 C-14.01 6.67 -13.02 6.34 -12 6 C-11.34 5.01 -10.68 4.02 -10 3 C-3.88888889 0 -3.88888889 0 0 0 Z " fill="#E2B028" transform="translate(285,186)"/>
<path d="M0 0 C1.15371094 -0.01417969 2.30742187 -0.02835937 3.49609375 -0.04296875 C6.5625 0.1875 6.5625 0.1875 9.5625 2.1875 C10.2225 1.8575 10.8825 1.5275 11.5625 1.1875 C21.90887773 5.7837533 30.13427312 13.76915227 34.5625 24.1875 C36.43702173 29.64488418 36.98674051 34.60212842 37.0625 40.3125 C37.10375 41.09753906 37.145 41.88257813 37.1875 42.69140625 C37.26281642 48.27423596 37.26281642 48.27423596 35.28588867 50.85229492 C32.8252663 53.00169532 31.18436006 54.17303814 27.875 54.25 C25.07338353 52.96277081 24.17981503 51.79176261 22.5625 49.1875 C22.16186523 46.92919922 22.16186523 46.92919922 22.12109375 44.4921875 C22.09466797 43.61175781 22.06824219 42.73132813 22.04101562 41.82421875 C22.02748047 40.91285156 22.01394531 40.00148437 22 39.0625 C21.9656292 37.24721267 21.92306136 35.43205632 21.87109375 33.6171875 C21.85876709 32.81522949 21.84644043 32.01327148 21.83374023 31.18701172 C21.7369358 28.95817684 21.7369358 28.95817684 19.5625 27.1875 C18.68552487 25.89717353 17.81077326 24.60533471 16.9375 23.3125 C13.0789068 18.19870179 9.26899616 15.70695056 2.88671875 14.8125 C-5.06652664 14.46048914 -9.98372721 16.88498481 -16.4375 21.1875 C-17.65168833 23.1341071 -17.65168833 23.1341071 -18.625 25.3125 C-18.96917969 26.03695312 -19.31335938 26.76140625 -19.66796875 27.5078125 C-19.92191406 28.06210938 -20.17585938 28.61640625 -20.4375 29.1875 C-21.0975 29.1875 -21.7575 29.1875 -22.4375 29.1875 C-22.1075 29.8475 -21.7775 30.5075 -21.4375 31.1875 C-21.25971377 33.78725932 -21.15996978 36.33574807 -21.125 38.9375 C-21.09599609 39.64132813 -21.06699219 40.34515625 -21.03710938 41.0703125 C-20.97488278 46.2207599 -22.04210444 49.10679525 -25.4375 53.1875 C-27.8125 54.375 -27.8125 54.375 -30.4375 54.1875 C-36.05552701 50.74803458 -36.05552701 50.74803458 -36.95458984 47.07495117 C-37.1014961 44.58759634 -37.05944617 42.17596399 -36.9375 39.6875 C-36.9271875 38.84574219 -36.916875 38.00398438 -36.90625 37.13671875 C-36.79498893 32.72104498 -36.4022411 29.21484287 -34.4375 25.1875 C-34.169375 24.218125 -33.90125 23.24875 -33.625 22.25 C-30.71318184 14.74057423 -22.74026657 6.97726446 -15.56640625 3.203125 C-10.99321934 1.1875 -10.99321934 1.1875 -8.4375 1.1875 C-5.60362485 -0.22943757 -3.15720627 0.0175987 0 0 Z M34.5625 31.1875 C35.5625 33.1875 35.5625 33.1875 35.5625 33.1875 Z " fill="#820000" transform="translate(259.4375,81.8125)"/>
<path d="M0 0 C4.62 0 9.24 0 14 0 C14.33 7.26 14.66 14.52 15 22 C16.32 18.04 17.64 14.08 19 10 C23.95 10 28.9 10 34 10 C32.27098738 16.65669859 30.35397283 22.96090476 27.671875 29.296875 C25.82666315 36.72063432 29.65951961 44.37747368 32.0625 51.3125 C32.80599808 53.47436365 33.54701593 55.63708241 34.28515625 57.80078125 C34.61394775 58.75122314 34.94273926 59.70166504 35.28149414 60.6809082 C36 63 36 63 36 65 C31.05 65 26.1 65 21 65 C19.02 59.06 17.04 53.12 15 47 C14.67 52.94 14.34 58.88 14 65 C9.38 65 4.76 65 0 65 C0 43.55 0 22.1 0 0 Z " fill="#EEBA2B" transform="translate(138,302)"/>
<path d="M0 0 C4.23164299 1.2342292 6.94542093 2.67981038 9.875 6 C11.4586193 10.0470271 11.09199473 13.69586229 10 17.875 C9.34 18.535 8.68 19.195 8 19.875 C8.495 20.865 8.495 20.865 9 21.875 C8.4765625 23.93359375 8.4765625 23.93359375 7.625 26.3125 C7.34914062 27.09496094 7.07328125 27.87742188 6.7890625 28.68359375 C6.52867187 29.40675781 6.26828125 30.12992188 6 30.875 C4.94065328 33.85280261 4.94065328 33.85280261 4.375 36.9375 C3.92125 37.906875 3.4675 38.87625 3 39.875 C-0.25 41 -0.25 41 -4 41.875 C-6.1410824 43.06915489 -8.0157844 44.42313493 -10 45.875 C-12.97 43.4 -12.97 43.4 -16 40.875 C-16.45375 41.7 -16.9075 42.525 -17.375 43.375 C-17.91125 44.2 -18.4475 45.025 -19 45.875 C-19.66 45.875 -20.32 45.875 -21 45.875 C-21.79423861 44.31380578 -22.58527123 42.75098036 -23.375 41.1875 C-23.81585938 40.31738281 -24.25671875 39.44726562 -24.7109375 38.55078125 C-28 31.72348485 -28 31.72348485 -28 27.875 C-30.60045875 30.1774119 -31.84739183 32.37396677 -33.1875 35.5625 C-33.53167969 36.37074219 -33.87585938 37.17898438 -34.23046875 38.01171875 C-34.48441406 38.62660156 -34.73835937 39.24148438 -35 39.875 C-41.29613273 34.10647616 -41.57139091 25.91511532 -42 17.875 C-42.33 18.535 -42.66 19.195 -43 19.875 C-43.66 19.875 -44.32 19.875 -45 19.875 C-45.33 17.895 -45.66 15.915 -46 13.875 C-45.154375 13.606875 -44.30875 13.33875 -43.4375 13.0625 C-39.95697653 11.92033465 -39.95697653 11.92033465 -36.5625 10.3125 C-32.95318958 8.85611158 -29.8707502 8.17858825 -26 7.875 C-25.34 8.205 -24.68 8.535 -24 8.875 C-24 8.215 -24 7.555 -24 6.875 C-19.92989429 4.69458623 -16.68097208 3.93985448 -12.0625 3.5 C-9.14075651 3.1759619 -7.95866035 2.84940879 -5.375 1.25 C-3 -0.125 -3 -0.125 0 0 Z " fill="#7B0000" transform="translate(238,220.125)"/>
<path d="M0 0 C4.62 0 9.24 0 14 0 C14.33 0.66 14.66 1.32 15 2 C15.66 1.34 16.32 0.68 17 0 C20.40371071 -0.62652374 23.59643571 -0.62077588 27 0 C30.54057559 2.45607496 32.22651594 5.82513684 33 10 C33.08384385 11.52648786 33.11781972 13.05617824 33.11352539 14.58496094 C33.11344986 15.48559265 33.11337433 16.38622437 33.11329651 17.31414795 C33.10813522 18.27782288 33.10297394 19.2414978 33.09765625 20.234375 C33.0962413 21.22753723 33.09482635 22.22069946 33.09336853 23.24395752 C33.08777588 26.41266912 33.0752247 29.58130979 33.0625 32.75 C33.05748405 34.89973856 33.05292131 37.04947823 33.04882812 39.19921875 C33.03780885 44.46617312 33.02054923 49.73307454 33 55 C28.38 55 23.76 55 19 55 C18.67 40.81 18.34 26.62 18 12 C17.01 12 16.02 12 15 12 C14.67 26.19 14.34 40.38 14 55 C9.38 55 4.76 55 0 55 C0 36.85 0 18.7 0 0 Z " fill="#EEBA2B" transform="translate(175,312)"/>
<path d="M0 0 C4.42075324 2.34763769 6.79709349 5.29994979 8.31933594 10.00463867 C9.30048706 15.05388494 8.98785293 20.31123253 9.00195312 25.44311523 C9.01164001 27.57640865 9.04267981 29.70872999 9.07421875 31.84179688 C9.08075184 33.213536 9.08600111 34.58528195 9.08984375 35.95703125 C9.09918945 37.19364502 9.10853516 38.43025879 9.11816406 39.7043457 C8.59105261 44.99387298 7.20304318 48.91199179 3.26171875 52.65625 C-2.14846988 56.17287261 -7.98805167 55.86341886 -14.23828125 55.28125 C-18.09035913 54.04428258 -20.58767123 52.10535602 -23.11328125 48.90625 C-26.00373822 42.16185041 -25.45597052 34.670004 -25.48828125 27.46875 C-25.51921875 25.76235352 -25.51921875 25.76235352 -25.55078125 24.02148438 C-25.58862979 15.82254489 -25.12772842 8.74858661 -19.73828125 2.28125 C-14.45202771 -1.94775283 -6.33688435 -2.03488084 0 0 Z M-9.23828125 10.28125 C-10.5893327 11.40552635 -10.5893327 11.40552635 -10.35180664 14.33227539 C-10.35164759 15.68116271 -10.34595737 17.03005614 -10.3359375 18.37890625 C-10.33452255 19.08776474 -10.3331076 19.79662323 -10.33164978 20.52696228 C-10.32603568 22.79926712 -10.31348088 25.07147475 -10.30078125 27.34375 C-10.29576806 28.88085796 -10.29120484 30.41796745 -10.28710938 31.95507812 C-10.27606167 35.73050642 -10.25878766 39.50586171 -10.23828125 43.28125 C-8.91828125 43.61125 -7.59828125 43.94125 -6.23828125 44.28125 C-4.78715349 41.37899449 -5.10842966 38.83213766 -5.10546875 35.59375 C-5.10451202 34.93544189 -5.1035553 34.27713379 -5.10256958 33.59887695 C-5.101889 32.20686752 -5.10373479 30.8148549 -5.10791016 29.42285156 C-5.11326021 27.28964117 -5.10796113 25.15664133 -5.1015625 23.0234375 C-5.1022233 21.67187453 -5.10350451 20.3203117 -5.10546875 18.96875 C-5.10659668 17.73511719 -5.10772461 16.50148438 -5.10888672 15.23046875 C-5.03458322 12.34899669 -5.03458322 12.34899669 -6.23828125 10.28125 C-7.22828125 10.28125 -8.21828125 10.28125 -9.23828125 10.28125 Z " fill="#EEBA2B" transform="translate(236.23828125,312.71875)"/>
<path d="M0 0 C3.56126564 2.71780799 5.03939491 5.1830794 5.94140625 9.5625 C6.38852945 12.9139099 6.5078511 16.12009951 6.5 19.5 C6.50386719 21.17642578 6.50386719 21.17642578 6.5078125 22.88671875 C6.375 25.8125 6.375 25.8125 5.375 28.8125 C-0.565 28.8125 -6.505 28.8125 -12.625 28.8125 C-12.295 33.4325 -11.965 38.0525 -11.625 42.8125 C-10.635 43.1425 -9.645 43.4725 -8.625 43.8125 C-8.295 40.1825 -7.965 36.5525 -7.625 32.8125 C-3.005 32.8125 1.615 32.8125 6.375 32.8125 C5.53404936 47.94961152 5.53404936 47.94961152 0.375 52.625 C-4.8858072 55.74860428 -10.70528154 55.22021571 -16.625 54.8125 C-20.03387977 53.83853435 -21.74758695 53.12679468 -23.72546387 50.16409302 C-26.38337072 45.09885612 -27.21954304 41.05277614 -27.15625 35.3671875 C-27.1600769 34.5936795 -27.16390381 33.82017151 -27.16784668 33.02322388 C-27.17054891 31.40137415 -27.16330699 29.77947957 -27.14648438 28.15771484 C-27.12498855 25.68618324 -27.14637091 23.21753819 -27.171875 20.74609375 C-27.16923256 19.16145198 -27.16410932 17.57681199 -27.15625 15.9921875 C-27.16434692 15.26079559 -27.17244385 14.52940369 -27.18078613 13.77584839 C-27.08791332 8.66049981 -25.83383555 5.75848049 -22.625 1.8125 C-16.43441614 -2.94948758 -7.11763278 -2.33163832 0 0 Z M-10.625 8.8125 C-11.615 9.3075 -11.615 9.3075 -12.625 9.8125 C-12.625 13.4425 -12.625 17.0725 -12.625 20.8125 C-10.975 20.8125 -9.325 20.8125 -7.625 20.8125 C-7.54368537 19.37594146 -7.48566441 17.9380517 -7.4375 16.5 C-7.40269531 15.69949219 -7.36789063 14.89898437 -7.33203125 14.07421875 C-7.68698392 11.33398416 -8.51866282 10.52078921 -10.625 8.8125 Z " fill="#EEBA2B" transform="translate(128.625,313.1875)"/>
<path d="M0 0 C3.35356337 2.07802667 5.25772113 4.74987932 6.86328125 8.2734375 C7.27350411 11.79354676 7.21215427 15.2845423 7.15625 18.82421875 C7.15200516 19.83816208 7.14776031 20.85210541 7.14338684 21.89677429 C7.12662984 25.12676849 7.08898247 28.35613272 7.05078125 31.5859375 C7.03573059 33.77928785 7.02204285 35.972648 7.00976562 38.16601562 C6.97673612 43.53537023 6.92656619 48.90435885 6.86328125 54.2734375 C1.52994792 54.2734375 -3.80338542 54.2734375 -9.13671875 54.2734375 C-10.12671875 54.7684375 -10.12671875 54.7684375 -11.13671875 55.2734375 C-15.56536476 55.63644127 -18.06092558 55.8347209 -22.01171875 53.7734375 C-26.20788493 48.83677141 -26.51016203 42.69541234 -26.31640625 36.44140625 C-25.89466248 31.35297595 -25.07381334 28.25515564 -21.51171875 24.5234375 C-17.30077891 21.38851177 -12.42694117 19.2734375 -7.13671875 19.2734375 C-7.46671875 16.6334375 -7.79671875 13.9934375 -8.13671875 11.2734375 C-9.12671875 10.9434375 -10.11671875 10.6134375 -11.13671875 10.2734375 C-11.13671875 12.2534375 -11.13671875 14.2334375 -11.13671875 16.2734375 C-15.75671875 16.2734375 -20.37671875 16.2734375 -25.13671875 16.2734375 C-25.13671875 7.4734375 -25.13671875 7.4734375 -22.13671875 2.2734375 C-15.69135988 -1.75726069 -7.24965345 -2.46514724 0 0 Z M-9.63671875 27.5859375 C-12.14709243 30.41010789 -12.2940266 33.15037897 -12.32421875 36.7734375 C-12.33839844 37.546875 -12.35257812 38.3203125 -12.3671875 39.1171875 C-12.27333403 41.57023806 -12.27333403 41.57023806 -10.13671875 44.2734375 C-9.14671875 43.9434375 -8.15671875 43.6134375 -7.13671875 43.2734375 C-7.13671875 37.6634375 -7.13671875 32.0534375 -7.13671875 26.2734375 C-8.34348136 26.16368673 -8.34348136 26.16368673 -9.63671875 27.5859375 Z " fill="#800000" transform="translate(374.13671875,312.7265625)"/>
<path d="M0 0 C4.29 0 8.58 0 13 0 C13.99 9.24 14.98 18.48 16 28 C16.94500424 20.28207244 16.94500424 20.28207244 17.88452148 12.56347656 C18.00384033 11.59893555 18.12315918 10.63439453 18.24609375 9.640625 C18.36654053 8.65610352 18.4869873 7.67158203 18.61108398 6.65722656 C19 4 19 4 20 0 C24.29 0 28.58 0 33 0 C32.38659186 7.7291013 31.39303982 15.27442865 30.0390625 22.90625 C29.84782806 23.9933728 29.65659363 25.08049561 29.45956421 26.20056152 C29.05697564 28.47660859 28.65180291 30.75219996 28.24414062 33.02734375 C27.62210651 36.51622909 27.01793208 40.00793084 26.4140625 43.5 C26.0193199 45.71894431 25.62352428 47.93770162 25.2265625 50.15625 C25.0483194 51.19994751 24.87007629 52.24364502 24.68643188 53.31896973 C24.5096994 54.28427612 24.33296692 55.24958252 24.15087891 56.24414062 C24.00067291 57.09254517 23.85046692 57.94094971 23.69570923 58.81506348 C22.89564902 61.32772349 22.06343344 62.38399006 20 64 C16.23699626 65.25433458 12.72789091 65.10695422 8.8125 65.0625 C8.06291016 65.05798828 7.31332031 65.05347656 6.54101562 65.04882812 C4.69397617 65.03706354 2.84697787 65.01912865 1 65 C1 61.7 1 58.4 1 55 C3.31 55 5.62 55 8 55 C7.82871582 53.97229492 7.65743164 52.94458984 7.48095703 51.88574219 C6.4235026 45.54101562 5.36604818 39.19628906 4.30859375 32.8515625 C4.17572968 32.05466003 4.0428656 31.25775757 3.90597534 30.43670654 C3.64122163 28.84761609 3.37683574 27.2584643 3.11282349 25.66925049 C2.53796702 22.21119851 1.95771944 18.75448116 1.36279297 15.29980469 C1.18119629 14.24180664 0.99959961 13.18380859 0.8125 12.09375 C0.65652344 11.19849609 0.50054687 10.30324219 0.33984375 9.38085938 C-0.11334716 6.20591847 -0.14544963 3.19989181 0 0 Z " fill="#EEBA2B" transform="translate(247,312)"/>
<path d="M0 0 C6.75 -0.125 6.75 -0.125 9 1 C11.68872957 5.52838664 11.09981872 10.04194627 10 15 C8.953125 17.27734375 8.953125 17.27734375 8 19 C7.34 19 6.68 19 6 19 C5.01 21.475 5.01 21.475 4 24 C4.66 24 5.32 24 6 24 C6 25.32 6 26.64 6 28 C5.34 28.33 4.68 28.66 4 29 C4.2165625 29.72445312 4.433125 30.44890625 4.65625 31.1953125 C7.75353218 41.94976452 7.75353218 41.94976452 7 46 C4.57184111 49.41254763 2.48478855 51.67680763 -1 54 C-3.89744159 54.22111299 -6.66692482 54.32451483 -9.5625 54.3125 C-10.34302734 54.32861328 -11.12355469 54.34472656 -11.92773438 54.36132812 C-14.19140625 54.36328125 -14.19140625 54.36328125 -18 54 C-20.17330391 50.74004414 -20.24921459 49.77020034 -20.1875 46 C-20.18105469 45.13375 -20.17460937 44.2675 -20.16796875 43.375 C-19.92033306 39.87354658 -18.95310373 37.92965559 -17 35 C-17.33 34.34 -17.66 33.68 -18 33 C-17.44140625 31.0546875 -17.44140625 31.0546875 -16.5625 28.875 C-16.27503906 28.15054688 -15.98757812 27.42609375 -15.69140625 26.6796875 C-15.46324219 26.12539062 -15.23507813 25.57109375 -15 25 C-14.34 25 -13.68 25 -13 25 C-13.33 24.34 -13.66 23.68 -14 23 C-14.03062591 20.20429215 -13.93285791 17.42305175 -13.83984375 14.62890625 C-13.7930483 11.76542643 -13.7930483 11.76542643 -16 9 C-16.33 8.01 -16.66 7.02 -17 6 C-14.39417629 5.06934867 -13.35801776 4.85082593 -10.75 5.9375 C-10.1725 6.288125 -9.595 6.63875 -9 7 C-8.34 6.34 -7.68 5.68 -7 5 C-3.875 5.375 -3.875 5.375 -1 6 C-0.67 4.02 -0.34 2.04 0 0 Z " fill="#0E0B02" transform="translate(271,214)"/>
<path d="M0 0 C1.68029994 0.97691857 3.34928604 1.97388051 5 3 C8.32719795 2.82488432 10.95674053 2.55456359 13.91796875 0.98046875 C17.82613243 -0.85996105 21.79975185 -0.72938441 26 0 C30.55053467 2.32047132 34.14598513 5.14248104 36 10 C36 11.32 36 12.64 36 14 C35.19175781 14.01417969 34.38351562 14.02835938 33.55078125 14.04296875 C26.70851306 14.20702726 26.70851306 14.20702726 20.9375 17.5 C19.9784375 18.7375 19.9784375 18.7375 19 20 C18.01 20.33 17.02 20.66 16 21 C12.57047551 24.93760219 12.70505629 28.63179437 12.796875 33.59765625 C12.98668791 35.84255893 13.42124082 37.82965306 14 40 C14 40.66 14 41.32 14 42 C13.360625 42.12375 12.72125 42.2475 12.0625 42.375 C11.381875 42.58125 10.70125 42.7875 10 43 C9.67 43.66 9.34 44.32 9 45 C8.34 45 7.68 45 7 45 C6.67 44.34 6.34 43.68 6 43 C3.98330173 41.86649466 3.98330173 41.86649466 2 41 C2.875 36.25 2.875 36.25 4 34 C4.04497662 29.42137979 3.53108119 25.8674326 1.125 21.9375 C-0.89019804 19.66312307 -0.89019804 19.66312307 -4 20 C-4.6496875 19.0409375 -4.6496875 19.0409375 -5.3125 18.0625 C-6.86828148 15.74207346 -6.86828148 15.74207346 -9.75 15.3125 C-10.8225 15.209375 -11.895 15.10625 -13 15 C-14.27875 14.814375 -15.5575 14.62875 -16.875 14.4375 C-17.90625 14.293125 -18.9375 14.14875 -20 14 C-19.3592749 8.55383663 -16.96705846 4.73563982 -12.875 1.125 C-8.59481272 -0.54985589 -4.53834036 -0.59457527 0 0 Z " fill="#E5B329" transform="translate(253,170)"/>
<path d="M0 0 C9.57 0 19.14 0 29 0 C29 4.29 29 8.58 29 13 C26.36 13 23.72 13 21 13 C21 29.83 21 46.66 21 64 C16.71 64 12.42 64 8 64 C8 47.17 8 30.34 8 13 C5.36 13 2.72 13 0 13 C0 8.71 0 4.42 0 0 Z " fill="#EEBA2B" transform="translate(71,303)"/>
<path d="M0 0 C4.29 0 8.58 0 13 0 C13 3.63 13 7.26 13 11 C14.32 11 15.64 11 17 11 C17 14.63 17 18.26 17 22 C15.68 22 14.36 22 13 22 C13.495 37.345 13.495 37.345 14 53 C15.485 53.495 15.485 53.495 17 54 C17 57.3 17 60.6 17 64 C14.44183084 65.27908458 12.48152006 65.23974681 9.625 65.3125 C8.19027344 65.36857422 8.19027344 65.36857422 6.7265625 65.42578125 C3.0827274 64.85675829 2.17880745 63.97441359 0 61 C-0.55259564 58.02144292 -0.46553252 55.09846935 -0.390625 52.078125 C-0.38213531 50.78814606 -0.38213531 50.78814606 -0.37347412 49.47210693 C-0.35111951 46.73083351 -0.30092602 43.99087696 -0.25 41.25 C-0.22993376 39.38934182 -0.21168321 37.52866311 -0.1953125 35.66796875 C-0.15125784 31.11147334 -0.08223754 26.55595978 0 22 C-1.32 22 -2.64 22 -4 22 C-4 18.37 -4 14.74 -4 11 C-2.68 11 -1.36 11 0 11 C0 7.37 0 3.74 0 0 Z " fill="#800000" transform="translate(413,303)"/>
<path d="M0 0 C4.62 0 9.24 0 14 0 C14.33 0.66 14.66 1.32 15 2 C15.99 1.34 16.98 0.68 18 0 C19.65 0 21.3 0 23 0 C23 3.63 23 7.26 23 11 C16.25 13 16.25 13 14 13 C14 26.86 14 40.72 14 55 C9.38 55 4.76 55 0 55 C0 36.85 0 18.7 0 0 Z " fill="#800000" transform="translate(385,312)"/>
<path d="M0 0 C0 5.61 0 11.22 0 17 C0.66 17 1.32 17 2 17 C2.226875 16.29875 2.45375 15.5975 2.6875 14.875 C4.33841288 11.25871465 6.2908835 8.91230024 9 6 C9.66 6 10.32 6 11 6 C11.10957031 6.80824219 11.21914062 7.61648437 11.33203125 8.44921875 C11.56986328 10.05216797 11.56986328 10.05216797 11.8125 11.6875 C11.96332031 12.74324219 12.11414063 13.79898438 12.26953125 14.88671875 C13.02391759 18.10193753 14.15874987 20.28100323 16 23 C16.78375 22.175 17.5675 21.35 18.375 20.5 C21 18 21 18 23 18 C23.04898438 18.62648437 23.09796875 19.25296875 23.1484375 19.8984375 C23.22320312 20.71570313 23.29796875 21.53296875 23.375 22.375 C23.47941406 23.59316406 23.47941406 23.59316406 23.5859375 24.8359375 C23.82892588 27.20334191 23.82892588 27.20334191 26 29 C26.825 28.2575 27.65 27.515 28.5 26.75 C32.04231626 23.77547127 35.81741662 21.94706468 40 20 C41 23 41 23 40.5 26.0625 C39 29 39 29 35.75 30.125 C34.5125 30.41375 33.275 30.7025 32 31 C29.8589176 32.19415489 27.9842156 33.54813493 26 35 C24.02 33.35 22.04 31.7 20 30 C19.54625 30.825 19.0925 31.65 18.625 32.5 C18.08875 33.325 17.5525 34.15 17 35 C16.34 35 15.68 35 15 35 C14.20576139 33.43880578 13.41472877 31.87598036 12.625 30.3125 C12.18414062 29.44238281 11.74328125 28.57226562 11.2890625 27.67578125 C8 20.84848485 8 20.84848485 8 17 C5.39954125 19.3024119 4.15260817 21.49896677 2.8125 24.6875 C2.46832031 25.49574219 2.12414062 26.30398438 1.76953125 27.13671875 C1.51558594 27.75160156 1.26164063 28.36648438 1 29 C-5.29613273 23.23147616 -5.57139091 15.04011532 -6 7 C-6.33 7.66 -6.66 8.32 -7 9 C-7.66 9 -8.32 9 -9 9 C-9.33 7.02 -9.66 5.04 -10 3 C-9.05125 2.690625 -8.1025 2.38125 -7.125 2.0625 C-1.05882353 0 -1.05882353 0 0 0 Z " fill="#080000" transform="translate(202,231)"/>
<path d="M0 0 C4.12838068 0.60711481 7.40422382 1.87522317 11 4 C11.495 5.485 11.495 5.485 12 7 C12.99 7 13.98 7 15 7 C15 8.98 15 10.96 15 13 C11.88711043 11.50120132 8.95462591 9.78832621 6 8 C2.19360329 6.09680165 -1.8635344 6.3926618 -6 7 C-10.18904713 8.68643564 -14.09197817 10.74382245 -18 13 C-17.030625 13.28875 -16.06125 13.5775 -15.0625 13.875 C-12 15 -12 15 -11 17 C-12.051875 17.2475 -13.10375 17.495 -14.1875 17.75 C-17.8220558 18.78212538 -20.22677369 20.38990465 -23 23 C-23.33 23.66 -23.66 24.32 -24 25 C-22.68 24.67 -21.36 24.34 -20 24 C-20.99 26.31 -21.98 28.62 -23 31 C-24.43836751 30.88541307 -25.87570966 30.75790884 -27.3125 30.625 C-28.11300781 30.55539063 -28.91351563 30.48578125 -29.73828125 30.4140625 C-32 30 -32 30 -35 28 C-34.38722388 25.03824877 -33.74627478 23.61941217 -32 21 C-32.66 20.67 -33.32 20.34 -34 20 C-31.77898425 12.67064803 -27.03232321 8.25544005 -20.5 4.5625 C-13.69856498 1.34121733 -7.38987808 1.4096843 0 2 C0 1.34 0 0.68 0 0 Z " fill="#E0AF27" transform="translate(237,186)"/>
<path d="M0 0 C7.40528646 0.23508846 12.59280813 2.37505429 19 6 C17 7.33333333 15 8.66666667 13 10 C13.61488281 10.25394531 14.22976563 10.50789062 14.86328125 10.76953125 C15.67152344 11.11371094 16.47976563 11.45789063 17.3125 11.8125 C18.11300781 12.14894531 18.91351563 12.48539063 19.73828125 12.83203125 C21.96515745 13.98200704 23.34987767 15.13626961 25 17 C24 19 24 19 23 20 C23.804375 21.03125 24.60875 22.0625 25.4375 23.125 C27.77799296 26.37127696 28.70358711 28.94902383 29 33 C26.69 32.34 24.38 31.68 22 31 C22 33.31 22 35.62 22 38 C19.82418313 35.15118272 17.79062001 32.23915912 15.8125 29.25 C15.28269531 28.45078125 14.75289063 27.6515625 14.20703125 26.828125 C13.80871094 26.22484375 13.41039062 25.6215625 13 25 C15.97 25.33 18.94 25.66 22 26 C18.55322151 20.09123687 13.18448115 18.90865884 7 17 C7.15726562 16.4121875 7.31453125 15.824375 7.4765625 15.21875 C8.24167624 11.97558132 8.35571306 9.31998856 8 6 C5.64167228 3.52791204 5.64167228 3.52791204 3 2 C3.33 2.66 3.66 3.32 4 4 C4.25267837 7.91651466 4.43819709 10.83147442 3.0625 14.5 C-0.29950148 16.94509198 -3.98243527 16.30321243 -8 16 C-6 15 -4 14 -2 13 C-1.0354167 10.1062501 -0.92198697 8.36874995 -1 5.375 C-1.03774356 3.91715517 -1.04645715 2.45759317 -1 1 C-0.67 0.67 -0.34 0.34 0 0 Z " fill="#120E03" transform="translate(284,192)"/>
<path d="M0 0 C6.75 -0.125 6.75 -0.125 9 1 C11.68872957 5.52838664 11.09981872 10.04194627 10 15 C8.42316258 18.78841871 8.42316258 18.78841871 6 20 C3.9765625 19.94921875 3.9765625 19.94921875 1.625 19.6875 C0.46871094 19.56955078 0.46871094 19.56955078 -0.7109375 19.44921875 C-3.11113838 18.97818957 -4.83443186 18.10887525 -7 17 C-9.32495277 16.61250787 -11.65851268 16.27017161 -14 16 C-14.12375 15.46375 -14.2475 14.9275 -14.375 14.375 C-15.12206016 11.5361714 -16.05303364 8.77776798 -17 6 C-14.39417629 5.06934867 -13.35801776 4.85082593 -10.75 5.9375 C-10.1725 6.288125 -9.595 6.63875 -9 7 C-8.34 6.34 -7.68 5.68 -7 5 C-3.875 5.375 -3.875 5.375 -1 6 C-0.67 4.02 -0.34 2.04 0 0 Z " fill="#E5B228" transform="translate(271,214)"/>
<path d="M0 0 C0.66 0 1.32 0 2 0 C5.79863481 12.70733788 5.79863481 12.70733788 5 17 C2.57184111 20.41254763 0.48478855 22.67680763 -3 25 C-5.89744159 25.22111299 -8.66692482 25.32451483 -11.5625 25.3125 C-12.34302734 25.32861328 -13.12355469 25.34472656 -13.92773438 25.36132812 C-16.19140625 25.36328125 -16.19140625 25.36328125 -20 25 C-22.20914 21.68629 -22.22481553 20.6553979 -22.125 16.8125 C-22.10695312 15.91144531 -22.08890625 15.01039063 -22.0703125 14.08203125 C-22.04710937 13.39496094 -22.02390625 12.70789063 -22 12 C-21.01 11.67 -20.02 11.34 -19 11 C-18.67 12.32 -18.34 13.64 -18 15 C-13.71 15 -9.42 15 -5 15 C-4.67 12.69 -4.34 10.38 -4 8 C-3.67 9.32 -3.34 10.64 -3 12 C-2.34 12 -1.68 12 -1 12 C-1.09539062 11.30132812 -1.19078125 10.60265625 -1.2890625 9.8828125 C-1.39992188 8.97273437 -1.51078125 8.06265625 -1.625 7.125 C-1.79902344 5.76761719 -1.79902344 5.76761719 -1.9765625 4.3828125 C-1.98429687 3.59648437 -1.99203125 2.81015625 -2 2 C-1.34 1.34 -0.68 0.68 0 0 Z " fill="#E4B028" transform="translate(273,243)"/>
<path d="M0 0 C0.19335938 0.60328125 0.38671875 1.2065625 0.5859375 1.828125 C0.97652344 3.02695313 0.97652344 3.02695313 1.375 4.25 C1.63023437 5.03890625 1.88546875 5.8278125 2.1484375 6.640625 C2.96255783 8.89626115 3.75472124 10.94895262 5 13 C7.55519921 13.81171228 7.55519921 13.81171228 10 14 C9.34 14.66 8.68 15.32 8 16 C4.07499826 15.92863633 1.83020654 15.83020654 -1 13 C-2.3964493 8.8106521 -1.77490216 5.2853023 -1 1 C-4.94035888 4.277165 -4.94035888 4.277165 -6.4375 9 C-6.00611334 11.95807995 -5.26939444 14.30253681 -4 17 C-4.68707031 17.12117188 -5.37414062 17.24234375 -6.08203125 17.3671875 C-6.98308594 17.53476563 -7.88414062 17.70234375 -8.8125 17.875 C-9.70582031 18.03742188 -10.59914062 18.19984375 -11.51953125 18.3671875 C-14.22727846 18.91188449 -14.22727846 18.91188449 -17 21 C-17.33 21.99 -17.66 22.98 -18 24 C-19.32 24 -20.64 24 -22 24 C-21.835 23.195625 -21.67 22.39125 -21.5 21.5625 C-20.96808161 19.2715557 -20.96808161 19.2715557 -21 18 C-21.66 18 -22.32 18 -23 18 C-21.49235345 13.77858966 -18.78707131 12.19650136 -15 10 C-12.625 9.25 -12.625 9.25 -11 9 C-13.31 8.34 -15.62 7.68 -18 7 C-13.82382464 1.91596043 -6.60930077 -2.55843901 0 0 Z " fill="#130F03" transform="translate(236,193)"/>
<path d="M0 0 C4.3744362 1.22484214 7.11111864 2.58142723 9.9375 6.1875 C11.32166527 9.32008457 11.42647109 11.48345024 11.125 14.875 C10.795 15.535 10.465 16.195 10.125 16.875 C8.1640625 17.4375 8.1640625 17.4375 5.75 17.875 C2.44974381 18.47700113 1.01091027 18.95105982 -1.875 20.875 C-1.125 14.25 -1.125 14.25 1.125 10.875 C0.17625 11.514375 -0.7725 12.15375 -1.75 12.8125 C-4.875 14.875 -4.875 14.875 -6.875 15.875 C-6.4067879 11.09923661 -5.63168002 7.83023655 -2.875 3.875 C-3.865 3.545 -4.855 3.215 -5.875 2.875 C-3.9801056 0.24320223 -3.31857133 -0.14428571 0 0 Z " fill="#110000" transform="translate(237.875,220.125)"/>
<path d="M0 0 C0.66 0 1.32 0 2 0 C0.14399412 4.8640154 -3.62964499 6.5680507 -7.8828125 9.21875 C-8.93082031 10.10046875 -8.93082031 10.10046875 -10 11 C-10 12.32 -10 13.64 -10 15 C-10.875 17.359375 -10.875 17.359375 -12 19.75 C-12.37125 20.54921875 -12.7425 21.3484375 -13.125 22.171875 C-13.41375 22.77515625 -13.7025 23.3784375 -14 24 C-14.99 24 -15.98 24 -17 24 C-19.13387816 21.31289417 -19.94842537 19.41259705 -20.375 16 C-19.92495717 12.39965736 -19.23663922 10.87064719 -17 8 C-14.41103349 6.44208958 -11.68356073 5.35071888 -8.875 4.25 C-4.09343865 2.64085448 -4.09343865 2.64085448 0 0 Z " fill="#DDAC27" transform="translate(309,159)"/>
<path d="M0 0 C4.29691771 1.67056182 8.49557929 3.52247124 12.6875 5.4375 C13.36361328 5.73720703 14.03972656 6.03691406 14.73632812 6.34570312 C18.17439358 7.92276599 19.85675679 8.78513519 22 12 C22.46531409 17.02539212 21.97760844 19.90578839 19 24 C16 23 16 23 14.90234375 21.1875 C14.58394531 20.465625 14.26554688 19.74375 13.9375 19 C12.67769923 15.8485304 12.67769923 15.8485304 10 14 C10 13.34 10 12.68 10 12 C10.66 11.67 11.32 11.34 12 11 C11.21753906 10.45730469 10.43507812 9.91460937 9.62890625 9.35546875 C8.61699219 8.64003906 7.60507813 7.92460937 6.5625 7.1875 C5.04849609 6.12595703 5.04849609 6.12595703 3.50390625 5.04296875 C1 3 1 3 0 0 Z " fill="#DEAD27" transform="translate(211,159)"/>
<path d="M0 0 C0.66 0 1.32 0 2 0 C1.97679687 0.60328125 1.95359375 1.2065625 1.9296875 1.828125 C1.91164062 2.62734375 1.89359375 3.4265625 1.875 4.25 C1.85179687 5.03890625 1.82859375 5.8278125 1.8046875 6.640625 C2.02389168 9.28861151 2.50066851 10.80866937 4 13 C7.54588501 14.29920746 7.54588501 14.29920746 11 15 C10.67 16.32 10.34 17.64 10 19 C9.34 19 8.68 19 8 19 C7.67 18.34 7.34 17.68 7 17 C4.08347826 16.83318891 4.08347826 16.83318891 1 17 C0.34 17.66 -0.32 18.32 -1 19 C-2.98294257 19.26005804 -4.96706955 19.51548511 -6.95703125 19.71484375 C-9.50738036 20.07081982 -11.67591304 20.91058424 -14 22 C-14 21.01 -14 20.02 -14 19 C-9.79593898 15.45282351 -6.23066851 15.7340338 -1 16 C-1.495 15.29875 -1.99 14.5975 -2.5 13.875 C-4.25771576 10.50604479 -4.54675527 8.74917903 -4 5 C-2.125 2.125 -2.125 2.125 0 0 Z " fill="#E1AD27" transform="translate(233,194)"/>
<path d="M0 0 C4.59037956 1.14759489 5.33669182 2.29039218 8 6 C8.598125 5.01 9.19625 4.02 9.8125 3 C10.8953125 1.515 10.8953125 1.515 12 0 C12.99 0 13.98 0 15 0 C15 4.62 15 9.24 15 14 C14.01 14 13.02 14 12 14 C11.67 12.02 11.34 10.04 11 8 C10.01 9.485 10.01 9.485 9 11 C7.0625 10.625 7.0625 10.625 5 10 C4.67 9.34 4.34 8.68 4 8 C3.67 9.98 3.34 11.96 3 14 C2.01 14 1.02 14 0 14 C0 9.38 0 4.76 0 0 Z " fill="#424141" transform="translate(234,385)"/>
<path d="M0 0 C3.68802044 1.22934015 4.72356973 2.93859378 7 6 C7.598125 5.01 8.19625 4.02 8.8125 3 C9.8953125 1.515 9.8953125 1.515 11 0 C11.99 0 12.98 0 14 0 C14 4.62 14 9.24 14 14 C13.01 14 12.02 14 11 14 C10.67 12.35 10.34 10.7 10 9 C9.34 9.66 8.68 10.32 8 11 C7.01 11 6.02 11 5 11 C4.34 10.01 3.68 9.02 3 8 C2.67 9.98 2.34 11.96 2 14 C1.34 14 0.68 14 0 14 C0 9.38 0 4.76 0 0 Z " fill="#424141" transform="translate(252,385)"/>
<path d="M0 0 C2.42520546 2.42520546 2.68564441 3.62067741 3 7 C2.24657348 9.94521275 1.65264804 11.48720511 -0.75 13.375 C-3.87386117 14.24273921 -5.90455213 13.9220483 -9 13 C-10.9375 11.375 -10.9375 11.375 -12 9 C-11.93439072 5.260271 -11.76345433 2.9396361 -9.375 0 C-5.95223815 -1.44116288 -3.55394628 -0.85557966 0 0 Z M-7 2 C-9.2491908 3.82703227 -9.2491908 3.82703227 -9.25 6.5 C-9.2491908 9.17296773 -9.2491908 9.17296773 -7 11 C-3.90073181 10.67801034 -3.90073181 10.67801034 -1 10 C-0.23043864 7.65466049 -0.23043864 7.65466049 0 5 C-1.08333333 3.08333333 -1.08333333 3.08333333 -3 2 C-4.32 2 -5.64 2 -7 2 Z " fill="#424141" transform="translate(230,386)"/>
<path d="M0 0 C5.53586661 -0.33893061 9.00290134 0.6865284 14 3 C16.77888613 3.69140522 16.77888613 3.69140522 19 4 C18.01 4.33 17.02 4.66 16 5 C15.67 6.98 15.34 8.96 15 11 C14.01 11.33 13.02 11.66 12 12 C11.67 10.35 11.34 8.7 11 7 C7.37 6.67 3.74 6.34 0 6 C0 4.02 0 2.04 0 0 Z " fill="#211A05" transform="translate(257,230)"/>
<path d="M0 0 C8.875 0.875 8.875 0.875 10 2 C10.04443347 3.99950636 10.03920815 6.00038436 10 8 C9.7018576 11.7763932 9.7018576 11.7763932 11 14 C7.31245243 13.50168276 5.39509338 12.89932357 3 10 C3 11.32 3 12.64 3 14 C2.01 14 1.02 14 0 14 C0 9.38 0 4.76 0 0 Z M3 3 C3 4.32 3 5.64 3 7 C4.65 6.67 6.3 6.34 8 6 C7.67 5.01 7.34 4.02 7 3 C5.68 3 4.36 3 3 3 Z " fill="#424141" transform="translate(280,385)"/>
<path d="M0 0 C2.85555449 0.93115907 4.13824629 1.52534207 5.875 3.9375 C5.875 4.5975 5.875 5.2575 5.875 5.9375 C5.318125 5.793125 4.76125 5.64875 4.1875 5.5 C1.75332241 4.90790275 -0.65135065 4.33863233 -3.125 3.9375 C-4.42133621 5.00395115 -4.42133621 5.00395115 -4.1875 7.5 C-4.166875 8.304375 -4.14625 9.10875 -4.125 9.9375 C-1.72780568 10.61708603 -1.72780568 10.61708603 0.875 10.9375 C1.535 10.2775 2.195 9.6175 2.875 8.9375 C3.865 8.9375 4.855 8.9375 5.875 8.9375 C4.50516497 12.09865776 3.8859362 12.9302092 0.875 14.9375 C-2.17019365 14.7471754 -4.37118495 14.38978903 -7 12.8125 C-8.84809221 9.73234632 -8.61560718 7.43307617 -8.125 3.9375 C-5.45043116 0.79094842 -4.15592269 -0.08311845 0 0 Z " fill="#424141" transform="translate(300.125,385.0625)"/>
<path d="M0 0 C2.85555449 0.93115907 4.13824629 1.52534207 5.875 3.9375 C5.875 4.5975 5.875 5.2575 5.875 5.9375 C5.318125 5.793125 4.76125 5.64875 4.1875 5.5 C1.75332241 4.90790275 -0.65135065 4.33863233 -3.125 3.9375 C-4.42133621 5.00395115 -4.42133621 5.00395115 -4.1875 7.5 C-4.166875 8.304375 -4.14625 9.10875 -4.125 9.9375 C-1.72780568 10.61708603 -1.72780568 10.61708603 0.875 10.9375 C1.535 10.2775 2.195 9.6175 2.875 8.9375 C3.865 8.9375 4.855 8.9375 5.875 8.9375 C4.50516497 12.09865776 3.8859362 12.9302092 0.875 14.9375 C-2.17019365 14.7471754 -4.37118495 14.38978903 -7 12.8125 C-8.84809221 9.73234632 -8.61560718 7.43307617 -8.125 3.9375 C-5.45043116 0.79094842 -4.15592269 -0.08311845 0 0 Z " fill="#424141" transform="translate(211.125,385.0625)"/>
<path d="M0 0 C2.31 0.33 4.62 0.66 7 1 C7 2.98 7 4.96 7 7 C8.65 6.67 10.3 6.34 12 6 C12.33 6.99 12.66 7.98 13 9 C12.67 9.66 12.34 10.32 12 11 C9.93359375 11.4140625 9.93359375 11.4140625 7.4375 11.625 C6.19806641 11.73714844 6.19806641 11.73714844 4.93359375 11.8515625 C3.97646484 11.92503906 3.97646484 11.92503906 3 12 C0.01485372 7.89542386 -0.2954439 5.02254631 0 0 Z " fill="#CA9E24" transform="translate(238,195)"/>
<path d="M0 0 C2.47551594 3.71327391 3.17117543 5.02914019 2.6875 9.375 C2.60886719 10.14585937 2.53023438 10.91671875 2.44921875 11.7109375 C1.98084469 14.09760878 1.18250119 15.88597746 0 18 C-2.475 17.01 -2.475 17.01 -5 16 C-5 13.36 -5 10.72 -5 8 C-4.01 7.67 -3.02 7.34 -2 7 C-2.33 5.68 -2.66 4.36 -3 3 C-2.01 2.67 -1.02 2.34 0 2 C0 1.34 0 0.68 0 0 Z " fill="#9B791B" transform="translate(279,215)"/>
<path d="M0 0 C0.33 3.96 0.66 7.92 1 12 C-4.16309352 12.07822869 -8.91902274 12.04225175 -14 11 C-14 10.34 -14 9.68 -14 9 C-14.66 8.67 -15.32 8.34 -16 8 C-14.02 8 -12.04 8 -10 8 C-10 7.34 -10 6.68 -10 6 C-8.35 6.33 -6.7 6.66 -5 7 C-4.896875 6.21625 -4.79375 5.4325 -4.6875 4.625 C-4.00541465 2.02067414 -3.23533224 0 0 0 Z " fill="#040300" transform="translate(300,176)"/>
<path d="M0 0 C0.66 0 1.32 0 2 0 C2.28410208 7.10255207 2.06437024 12.6382158 -2.5625 18.375 C-3.366875 19.24125 -4.17125 20.1075 -5 21 C-5.33 21 -5.66 21 -6 21 C-6.79134258 9.97396009 -6.79134258 9.97396009 -3.5625 6 C-2.716875 5.34 -1.87125 4.68 -1 4 C-0.13880866 1.82653432 -0.13880866 1.82653432 0 0 Z " fill="#DEAD27" transform="translate(307,166)"/>
<path d="M0 0 C2.97 0 5.94 0 9 0 C9 0.99 9 1.98 9 3 C7.02 3 5.04 3 3 3 C3 3.99 3 4.98 3 6 C4.65 6 6.3 6 8 6 C8 6.99 8 7.98 8 9 C6.35 9 4.7 9 3 9 C3 9.99 3 10.98 3 12 C4.98 12 6.96 12 9 12 C9 12.66 9 13.32 9 14 C6.03 14 3.06 14 0 14 C0 9.38 0 4.76 0 0 Z " fill="#424141" transform="translate(308,385)"/>
<path d="M0 0 C0.66 0 1.32 0 2 0 C2.433125 0.928125 2.86625 1.85625 3.3125 2.8125 C4.70300375 5.91959142 4.70300375 5.91959142 6.59375 7.34375 C8.63927085 9.752919 8.2969414 11.58666038 8.1875 14.6875 C8.16042969 15.68136719 8.13335937 16.67523438 8.10546875 17.69921875 C8.07066406 18.45847656 8.03585938 19.21773437 8 20 C1.39924536 14.98480522 1.39924536 14.98480522 0.0625 11.6875 C-0.02816263 7.78900705 -0.07645305 3.8991056 0 0 Z " fill="#E1B028" transform="translate(213,166)"/>
<path d="M0 0 C1 3 1 3 0.0390625 5.375 C-0.66089844 6.674375 -0.66089844 6.674375 -1.375 8 C-2.80738178 10.68871663 -4.03459402 13.10378206 -5 16 C-5.66 16 -6.32 16 -7 16 C-7.33 13.36 -7.66 10.72 -8 8 C-8.99 7.67 -9.98 7.34 -11 7 C-11.33 6.01 -11.66 5.02 -12 4 C-9.34982982 2.58026597 -6.93354498 1.64171296 -4 1 C-2.88625 0.7215625 -2.88625 0.7215625 -1.75 0.4375 C-0.88375 0.2209375 -0.88375 0.2209375 0 0 Z " fill="#630000" transform="translate(226,223)"/>
<path d="M0 0 C2 2 2 2 2.1953125 4.1640625 C2.17210937 4.97617188 2.14890625 5.78828125 2.125 6.625 C2.10695313 7.44226563 2.08890625 8.25953125 2.0703125 9.1015625 C2.03550781 10.04128906 2.03550781 10.04128906 2 11 C1.67 11 1.34 11 1 11 C1 8.36 1 5.72 1 3 C0.34 3 -0.32 3 -1 3 C-1.0825 3.7425 -1.165 4.485 -1.25 5.25 C-2 8 -2 8 -4 9.625 C-7.24468914 13.47806835 -6.83133441 18.10869793 -7 23 C-7.33 23 -7.66 23 -8 23 C-8.33 20.03 -8.66 17.06 -9 14 C-9.99 14.495 -9.99 14.495 -11 15 C-9.125 10.25 -9.125 10.25 -8 8 C-8.66 7.67 -9.32 7.34 -10 7 C-8.70982586 6.01886757 -7.41780894 5.04015801 -6.125 4.0625 C-5.04605469 3.24458984 -5.04605469 3.24458984 -3.9453125 2.41015625 C-2 1 -2 1 0 0 Z " fill="#2A2007" transform="translate(308,163)"/>
<path d="M0 0 C2.97 0 5.94 0 9 0 C9 0.99 9 1.98 9 3 C6.69 3 4.38 3 2 3 C2 3.99 2 4.98 2 6 C3.98 6 5.96 6 8 6 C8 6.99 8 7.98 8 9 C6.02 9 4.04 9 2 9 C2 9.99 2 10.98 2 12 C4.31 12 6.62 12 9 12 C9 12.66 9 13.32 9 14 C6.03 14 3.06 14 0 14 C0 9.38 0 4.76 0 0 Z " fill="#424141" transform="translate(269,385)"/>
<path d="M0 0 C2.97 0 5.94 0 9 0 C9 0.99 9 1.98 9 3 C6.69 3 4.38 3 2 3 C2 3.99 2 4.98 2 6 C3.98 6 5.96 6 8 6 C8 6.99 8 7.98 8 9 C6.02 9 4.04 9 2 9 C2 9.99 2 10.98 2 12 C4.31 12 6.62 12 9 12 C9 12.66 9 13.32 9 14 C6.03 14 3.06 14 0 14 C0 9.38 0 4.76 0 0 Z " fill="#424141" transform="translate(184,385)"/>
<path d="M0 0 C3.96 0 7.92 0 12 0 C12.33 1.32 12.66 2.64 13 4 C11.3125 6.3125 11.3125 6.3125 9 8 C5.10080893 8 2.07771357 5.16838911 -1 3 C-0.67 2.01 -0.34 1.02 0 0 Z " fill="#D7A626" transform="translate(254,245)"/>
<path d="M0 0 C0.99 0 1.98 0 3 0 C3.29554656 7.68421053 3.29554656 7.68421053 1 11 C-1.79870027 12.39935013 -3.90498792 12.25265405 -7 12 C-8.875 10.5 -8.875 10.5 -10 9 C-9.01 8.01 -8.02 7.02 -7 6 C-5.02 6.66 -3.04 7.32 -1 8 C-0.67 5.36 -0.34 2.72 0 0 Z " fill="#CEA124" transform="translate(281,195)"/>
<path d="M0 0 C0 0.66 0 1.32 0 2 C-0.99 2 -1.98 2 -3 2 C-2.979375 2.94875 -2.95875 3.8975 -2.9375 4.875 C-3 8 -3 8 -4 10 C-5.65 10 -7.3 10 -9 10 C-9.66 8.68 -10.32 7.36 -11 6 C-9.68 5.01 -8.36 4.02 -7 3 C-7.33 2.34 -7.66 1.68 -8 1 C-4.93251126 -0.86240388 -3.40254489 -1.2151946 0 0 Z " fill="#171103" transform="translate(284,193)"/>
<path d="M0 0 C8.6309795 3.85421412 8.6309795 3.85421412 11 8 C10.01 8 9.02 8 8 8 C8 8.66 8 9.32 8 10 C8.66 10.33 9.32 10.66 10 11 C9.01 11.33 8.02 11.66 7 12 C2 6.375 2 6.375 2 3 C1.34 3 0.68 3 0 3 C0 5.64 0 8.28 0 11 C-0.33 11 -0.66 11 -1 11 C-1.0270043 9.54176788 -1.04639787 8.08339325 -1.0625 6.625 C-1.07410156 5.81289062 -1.08570313 5.00078125 -1.09765625 4.1640625 C-1 2 -1 2 0 0 Z " fill="#140F03" transform="translate(213,163)"/>
<path d="M0 0 C3.83641483 1.50716297 5.85990819 3.48413488 8 7 C8.32789227 9.76146771 8.18960429 12.20333676 8 15 C4.97059382 13.48529691 4.35039454 11.0596179 2.875 8.0625 C2.33617187 6.98097656 1.79734375 5.89945313 1.2421875 4.78515625 C0 2 0 2 0 0 Z " fill="#281F07" transform="translate(295,224)"/>
<path d="M0 0 C2.79828356 0.38597015 3.8205884 0.80136573 5.75 2.9375 C7 5 7 5 7 7 C6.01 7 5.02 7 4 7 C3.67 8.32 3.34 9.64 3 11 C0.39665076 8.28817788 0.00543309 7.10866187 -0.1875 3.25 C-0.125625 2.1775 -0.06375 1.105 0 0 Z " fill="#7E0000" transform="translate(241,222)"/>
<path d="M0 0 C3.375 0.375 3.375 0.375 5.375 1.375 C5.375 2.035 5.375 2.695 5.375 3.375 C7.355 3.375 9.335 3.375 11.375 3.375 C11.375 3.705 11.375 4.035 11.375 4.375 C9.065 4.375 6.755 4.375 4.375 4.375 C4.375 3.715 4.375 3.055 4.375 2.375 C2.7475363 2.99355631 1.12309644 3.62007305 -0.5 4.25 C-1.85738281 4.77207031 -1.85738281 4.77207031 -3.2421875 5.3046875 C-5.74717007 6.26030895 -5.74717007 6.26030895 -7.625 8.375 C-7.625 5.375 -7.625 5.375 -6.0625 2.6875 C-3.625 0.375 -3.625 0.375 0 0 Z " fill="#302608" transform="translate(280.625,183.625)"/>
<path d="M0 0 C1 3 1 3 -0.21484375 5.91796875 C-0.78332031 6.99691406 -1.35179687 8.07585937 -1.9375 9.1875 C-2.50339844 10.27417969 -3.06929687 11.36085937 -3.65234375 12.48046875 C-4.09707031 13.31191406 -4.54179687 14.14335937 -5 15 C-5.33 15 -5.66 15 -6 15 C-6.46898263 6.87096774 -6.46898263 6.87096774 -4.6875 3.5625 C-3 2 -3 2 0 0 Z " fill="#0C0000" transform="translate(226,223)"/>
<path d="M0 0 C2.4375 2.5625 2.4375 2.5625 4 5 C0.70342144 5 -1.16364428 4.25666731 -4.1875 3 C-5.08855469 2.62875 -5.98960937 2.2575 -6.91796875 1.875 C-7.60503906 1.58625 -8.29210937 1.2975 -9 1 C-9 1.66 -9 2.32 -9 3 C-11.64 3 -14.28 3 -17 3 C-17 2.67 -17 2.34 -17 2 C-14.69 2 -12.38 2 -10 2 C-10 1.34 -10 0.68 -10 0 C-6.16652698 -1.27782434 -3.91272241 -0.96101954 0 0 Z " fill="#281F07" transform="translate(246,185)"/>
<path d="M0 0 C0.33 1.32 0.66 2.64 1 4 C1.66 4 2.32 4 3 4 C2.34 5.32 1.68 6.64 1 8 C-4.61 8 -10.22 8 -16 8 C-16 6.35 -16 4.7 -16 3 C-15.01 3.495 -15.01 3.495 -14 4 C-14 4.99 -14 5.98 -14 7 C-9.71 7 -5.42 7 -1 7 C-0.67 4.69 -0.34 2.38 0 0 Z " fill="#826617" transform="translate(269,251)"/>
<path d="M0 0 C1.32 0.66 2.64 1.32 4 2 C4 2.66 4 3.32 4 4 C3.34 4 2.68 4 2 4 C2.33 4.99 2.66 5.98 3 7 C6.63 7.33 10.26 7.66 14 8 C14 8.33 14 8.66 14 9 C9.71 9 5.42 9 1 9 C0.67 8.01 0.34 7.02 0 6 C-0.66 5.67 -1.32 5.34 -2 5 C-1.34 3.35 -0.68 1.7 0 0 Z " fill="#0C0A02" transform="translate(254,249)"/>
<path d="M0 0 C3.3 0 6.6 0 10 0 C9.67 1.32 9.34 2.64 9 4 C6.36 4 3.72 4 1 4 C0.67 2.68 0.34 1.36 0 0 Z " fill="#C09622" transform="translate(256,253)"/>
<path d="M0 0 C7.75 -0.125 7.75 -0.125 10 1 C10 1.99 10 2.98 10 4 C6.7 3.67 3.4 3.34 0 3 C0 2.01 0 1.02 0 0 Z " fill="#DEAA26" transform="translate(257,233)"/>
<path d="M0 0 C0 0.66 0 1.32 0 2 C-0.99 1.67 -1.98 1.34 -3 1 C-3.66 3.31 -4.32 5.62 -5 8 C-5.66 8 -6.32 8 -7 8 C-6.979375 7.21625 -6.95875 6.4325 -6.9375 5.625 C-6.81315937 3.01885039 -6.81315937 3.01885039 -8 1 C-4.93251126 -0.86240388 -3.40254489 -1.2151946 0 0 Z " fill="#715814" transform="translate(284,193)"/>
<path d="M0 0 C1.32 0 2.64 0 4 0 C4 1.98 4 3.96 4 6 C3.01 6.33 2.02 6.66 1 7 C0.67 4.69 0.34 2.38 0 0 Z " fill="#7A5F16" transform="translate(241,196)"/>
<path d="M0 0 C0.66 0 1.32 0 2 0 C2.33 1.32 2.66 2.64 3 4 C2.01 4 1.02 4 0 4 C0 5.65 0 7.3 0 9 C-0.66 8.01 -1.32 7.02 -2 6 C-2.99 6.495 -2.99 6.495 -4 7 C-2.92598892 4.08482708 -2.22189824 2.22189824 0 0 Z " fill="#1B1504" transform="translate(270,189)"/>
<path d="M0 0 C3.375 -0.125 3.375 -0.125 7 0 C7.66 0.66 8.32 1.32 9 2 C8 3 8 3 6.15234375 3.09765625 C4.1015625 3.06510417 2.05078125 3.03255208 0 3 C0 2.01 0 1.02 0 0 Z " fill="#332507" transform="translate(257,230)"/>
<path d="M0 0 C1.98 0.99 1.98 0.99 4 2 C4 3.32 4 4.64 4 6 C3.01 6.33 2.02 6.66 1 7 C0.67 4.69 0.34 2.38 0 0 Z " fill="#CFA225" transform="translate(268,235)"/>
<path d="M0 0 C2.475 0.99 2.475 0.99 5 2 C4.01 2.495 4.01 2.495 3 3 C2.67 3.99 2.34 4.98 2 6 C2 5.01 2 4.02 2 3 C1.34 3 0.68 3 0 3 C0 5.64 0 8.28 0 11 C-0.33 11 -0.66 11 -1 11 C-1.0270043 9.54176788 -1.04639787 8.08339325 -1.0625 6.625 C-1.07410156 5.81289062 -1.08570313 5.00078125 -1.09765625 4.1640625 C-1 2 -1 2 0 0 Z " fill="#40320B" transform="translate(213,163)"/>
<path d="M0 0 C1.32 0 2.64 0 4 0 C3.67 1.65 3.34 3.3 3 5 C2.01 5 1.02 5 0 5 C0 3.35 0 1.7 0 0 Z " fill="#390000" transform="translate(245,229)"/>
<path d="M0 0 C2.91517292 1.07401108 4.77810176 1.77810176 7 4 C7 4.66 7 5.32 7 6 C2.32307692 4.52307692 2.32307692 4.52307692 0.6875 1.875 C0.460625 1.25625 0.23375 0.6375 0 0 Z " fill="#CB9E24" transform="translate(211,159)"/>
<path d="M0 0 C1.32 0.66 2.64 1.32 4 2 C4 2.66 4 3.32 4 4 C2.02 4.33 0.04 4.66 -2 5 C-1.34 3.35 -0.68 1.7 0 0 Z " fill="#030300" transform="translate(254,249)"/>
<path d="M0 0 C-1.04874998 2.62187494 -1.64931313 3.79371361 -4.125 5.25 C-4.74375 5.4975 -5.3625 5.745 -6 6 C-6.33 5.01 -6.66 4.02 -7 3 C-2.25 0 -2.25 0 0 0 Z " fill="#CC9F24" transform="translate(311,159)"/>
<path d="M0 0 C2.31 0 4.62 0 7 0 C7 0.66 7 1.32 7 2 C4.69 2 2.38 2 0 2 C0 1.34 0 0.68 0 0 Z " fill="#424141" transform="translate(194,393)"/>
<path d="M0 0 C0.33 0 0.66 0 1 0 C1 1.98 1 3.96 1 6 C0.67 6 0.34 6 0 6 C0 4.02 0 2.04 0 0 Z " fill="#FFBB0A" transform="translate(342,265)"/>
<path d="M0 0 C0.33 0 0.66 0 1 0 C1 1.65 1 3.3 1 5 C0.67 5 0.34 5 0 5 C0 3.35 0 1.7 0 0 Z " fill="#FFA816" transform="translate(337,216)"/>
<path d="M0 0 C0.33 0 0.66 0 1 0 C1 1.65 1 3.3 1 5 C0.67 5 0.34 5 0 5 C0 3.35 0 1.7 0 0 Z " fill="#FFBD23" transform="translate(186,168)"/>
<path d="M0 0 C1 4 1 4 1 4 Z " fill="#FFBF13" transform="translate(342,273)"/>
<path d="" fill="#855E00" transform="translate(0,0)"/>
<path d="M0 0 C3 1 3 1 3 1 Z " fill="#FFFF00" transform="translate(235,211)"/>
<path d="M0 0 C2 1 2 1 2 1 Z " fill="#B80000" transform="translate(185,235)"/>
<path d="M0 0 C2 1 2 1 2 1 Z " fill="#000000" transform="translate(195,232)"/>
<path d="M0 0 C2 1 2 1 2 1 Z " fill="#800000" transform="translate(228,222)"/>
<path d="M0 0 C2 1 2 1 2 1 Z " fill="#FFB525" transform="translate(224,214)"/>
<path d="" fill="#910000" transform="translate(0,0)"/>
<path d="" fill="#FF0000" transform="translate(0,0)"/>
<path d="" fill="#FF8100" transform="translate(0,0)"/>
<path d="" fill="#FF8400" transform="translate(0,0)"/>
<path d="" fill="#800000" transform="translate(0,0)"/>
<path d="" fill="#FF9000" transform="translate(0,0)"/>
<path d="" fill="#FFBF40" transform="translate(0,0)"/>
<path d="" fill="#800000" transform="translate(0,0)"/>
<path d="" fill="#FF0000" transform="translate(0,0)"/>
<path d="" fill="#000000" transform="translate(0,0)"/>
</svg>
